# xmcd
#
# Track frame offsets: 
#        182
#        38897
#        79810
#        125272
#        133120
#        158337
#        192752
#        207480
#        217850
#        224100
#        228532
#        232142
#        239930
#        245297
#        250770
#        269572
#        280807
#        294500
#        300197
#
# Disc length: 4083 seconds
#
# Revision: 0
# Processed by: cddbd v1.5.2PL0 Copyright (c) Steve Scherf et al.
# Submitted via: ExactAudioCopy v1.3
#
DISCID=1e0ff113
DTITLE=Werner Andreas Albert - Hindemith - Violin Concerto
DYEAR=1900
DGENRE=20th Century
TTITLE0=Violin Concerto (1939) - 1. Maessig bewegte Halbe
TTITLE1=Violin Concerto - 2. Langsam
TTITLE2=Violin Concerto - 3. Lebhaft
TTITLE3=Kammermusik No.4 Op.36 No.3 (1925) - 1. Signal, breite majesta
TTITLE3=etische Halbe
TTITLE4=Kammermusik No.4 Op.36 No.3 - 2. Sehr lebhaft
TTITLE5=Kammermusik No.4 Op.36 No.3 - 3. Nachtstueck, maessig schnelle
TTITLE5=Achtel
TTITLE6=Kammermusik No.4 Op.36 No.3 - 4. Lebhafte Viiertel
TTITLE7=Kammermusik No.4 Op.36 No.3 - 5. So schnell wie maeglich
TTITLE8=Tuttifaentchen (1922) - 1. Vorspiel. Langsam, jedach fliessend
TTITLE9=Tuttifaentchen - 2. Lied. Leicht bewegt
TTITLE10=Tuttifaentchen - 3. Intermezzo. Munter
TTITLE11=Tuttifaentchen - 4. Lied Langsam
TTITLE12=Tuttifaentchen - 5. Marsch. Nicht schnell
TTITLE13=Tuttifaentchen - 6. Musik zum Kaspertheater. Lustig
TTITLE14=Tuttifaentchen - 7. Tanz der Holzpuppen. Allegretto
TTITLE15=Tuttifaentchen - 8. Lied. Langsam
TTITLE16=Tuttifaentchen - 9. Melodram. Schnell - Sehr langsam - langsa
TTITLE16=m - sehr langsam
TTITLE17=Tuttifaentchen - 10. Wiegenlied. Langsam
TTITLE18=Tuttifaentchen - 11. Schlusslied. Breit, freudig
EXTD=
EXTT0=
EXTT1=
EXTT2=
EXTT3=
EXTT4=
EXTT5=
EXTT6=
EXTT7=
EXTT8=
EXTT9=
EXTT10=
EXTT11=
EXTT12=
EXTT13=
EXTT14=
EXTT15=
EXTT16=
EXTT17=
EXTT18=
PLAYORDER=
